<?xml version="1.0" encoding="UTF-8"?>
<!DOCTYPE svg PUBLIC "-//W3C//DTD SVG 1.1//EN" "http://www.w3.org/Graphics/SVG/1.1/DTD/svg11.dtd">
<svg xmlns="http://www.w3.org/2000/svg" version="1.1" width="866px" height="267px" style="shape-rendering:geometricPrecision; text-rendering:geometricPrecision; image-rendering:optimizeQuality; fill-rule:evenodd; clip-rule:evenodd" xmlns:xlink="http://www.w3.org/1999/xlink">
<g><path style="opacity:0.004" fill="#fefffe" d="M 431.5,-0.5 C 431.833,-0.5 432.167,-0.5 432.5,-0.5C 432.315,0.170143 431.981,0.170143 431.5,-0.5 Z"/></g>
<g><path style="opacity:0.004" fill="#fefffe" d="M 863.5,-0.5 C 863.833,-0.5 864.167,-0.5 864.5,-0.5C 864.315,0.170143 863.981,0.170143 863.5,-0.5 Z"/></g>
<g><path style="opacity:0.004" fill="#fefffe" d="M 508.5,10.5 C 509.833,11.1667 509.833,11.1667 508.5,10.5 Z"/></g>
<g><path style="opacity:0.004" fill="#fefffe" d="M 230.5,11.5 C 231.833,12.1667 231.833,12.1667 230.5,11.5 Z"/></g>
<g><path style="opacity:0.004" fill="#fefffe" d="M 234.5,15.5 C 235.833,16.1667 235.833,16.1667 234.5,15.5 Z"/></g>
<g><path style="opacity:0.956" fill="#0b0909" d="M 218.5,168.5 C 218.38,166.801 218.046,165.135 217.5,163.5C 219.233,158.467 221.067,153.467 223,148.5C 223.667,146.5 223.667,144.5 223,142.5C 218.7,147.463 213.366,150.796 207,152.5C 203.9,149.4 200.733,146.233 197.5,143C 190.801,139.419 184.468,139.752 178.5,144C 172.868,145.759 167.201,145.759 161.5,144C 154.929,139.449 148.263,139.449 141.5,144C 138.321,147.046 135.488,150.212 133,153.5C 126.501,151.58 121.168,147.913 117,142.5C 119.723,160.109 128.223,174.275 142.5,185C 168.587,199.585 191.254,195.418 210.5,172.5C 212.396,171.534 214.396,171.201 216.5,171.5C 217.511,173.402 217.678,175.402 217,177.5C 215.315,179.017 213.815,180.684 212.5,182.5C 211.505,187.792 211.172,193.125 211.5,198.5C 227.107,203.424 242.774,208.257 258.5,213C 281.004,219.481 291.837,234.314 291,257.5C 287.521,260.505 285.021,259.839 283.5,255.5C 284.296,248.221 282.629,241.554 278.5,235.5C 275.894,234.348 273.227,234.182 270.5,235C 260.296,238.705 253.296,245.538 249.5,255.5C 246.167,260.833 242.833,260.833 239.5,255.5C 245.865,241.974 256.199,232.807 270.5,228C 262.965,223.151 254.798,219.651 246,217.5C 232.636,226.895 226.136,239.895 226.5,256.5C 223.251,260.687 220.584,260.354 218.5,255.5C 218.5,255.167 218.5,254.833 218.5,254.5C 220.085,243.979 223.418,233.979 228.5,224.5C 231.144,221.52 233.811,218.52 236.5,215.5C 227.628,212.265 218.794,208.932 210,205.5C 206.276,208.302 202.776,211.469 199.5,215C 192.717,217.872 185.717,220.039 178.5,221.5C 184.485,227.986 190.652,234.319 197,240.5C 196.882,245.933 197.715,250.933 199.5,255.5C 196.355,260.767 193.355,260.767 190.5,255.5C 191.645,251.689 191.812,247.689 191,243.5C 183.5,236 176,228.5 168.5,221C 154.066,222.445 142.066,217.778 132.5,207C 125.4,205.429 122.9,207.929 125,214.5C 132.86,228.229 140.694,241.896 148.5,255.5C 145.5,260.833 142.5,260.833 139.5,255.5C 136.219,248.277 132.385,241.277 128,234.5C 127.107,233.919 126.107,233.585 125,233.5C 116.986,236.171 108.986,238.838 101,241.5C 100.675,243.553 101.009,245.553 102,247.5C 104.284,249.736 105.784,252.402 106.5,255.5C 106.182,257.818 104.848,259.152 102.5,259.5C 100.423,258.677 98.756,257.344 97.5,255.5C 97.6602,253.801 97.4935,252.134 97,250.5C 91.8736,241.378 87.0403,232.045 82.5,222.5C 81.8333,222.167 81.1667,221.833 80.5,221.5C 68.8393,225.662 61.006,233.662 57,245.5C 56.1925,249.027 56.3592,252.36 57.5,255.5C 55.4118,259.731 52.5785,260.398 49,257.5C 47.4057,242.516 52.5724,230.349 64.5,221C 68.7057,218.398 73.039,216.064 77.5,214C 75.2555,207.733 76.5888,202.399 81.5,198C 90.1609,195.168 98.8276,192.334 107.5,189.5C 114.103,190.44 118.103,194.107 119.5,200.5C 122.774,200.365 125.774,199.365 128.5,197.5C 129.37,192.914 129.703,188.414 129.5,184C 120.372,175.27 114.372,164.936 111.5,153C 109.877,149.967 108.544,146.8 107.5,143.5C 100.003,138.524 95.5031,131.524 94,122.5C 93.3333,116.5 93.3333,110.5 94,104.5C 94.3095,103.234 94.8095,102.067 95.5,101C 95.1667,100.667 94.8333,100.333 94.5,100C 96.5435,98.292 98.2101,96.292 99.5,94C 101.909,92.2932 104.575,91.4598 107.5,91.5C 106.923,78.0613 107.756,64.7279 110,51.5C 112.066,45.7171 115.066,40.0504 119,34.5C 121.22,31.979 123.72,29.8123 126.5,28C 132.973,24.9304 139.306,21.597 145.5,18C 152.776,17.9317 159.942,17.0984 167,15.5C 170.36,16.2538 172.86,18.0871 174.5,21C 193.081,20.1324 209.081,25.9657 222.5,38.5C 228.086,44.7472 231.252,52.0806 232,60.5C 232.168,71.5151 232.668,82.5151 233.5,93.5C 239.367,95.5023 244.2,98.8356 248,103.5C 248.167,108.333 248.333,113.167 248.5,118C 248.62,123.607 248.12,129.107 247,134.5C 242.594,138.141 237.761,141.141 232.5,143.5C 230.794,149.991 228.627,156.325 226,162.5C 224.516,165.821 222.016,167.821 218.5,168.5 Z"/></g>
<g><path style="opacity:0.004" fill="#fefffe" d="M 725.5,17.5 C 726.833,18.1667 726.833,18.1667 725.5,17.5 Z"/></g>
<g><path style="opacity:0.004" fill="#000000" d="M 176.5,20.5 C 177.946,19.3871 179.613,19.2204 181.5,20C 179.866,20.4935 178.199,20.6602 176.5,20.5 Z"/></g>
<g><path style="opacity:0.004" fill="#fefffe" d="M 53.5,20.5 C 54.8333,21.1667 54.8333,21.1667 53.5,20.5 Z"/></g>
<g><path style="opacity:0.004" fill="#fefffe" d="M 2.5,23.5 C 3.83333,24.1667 3.83333,24.1667 2.5,23.5 Z"/></g>
<g><path style="opacity:0.004" fill="#fefffe" d="M 490.5,25.5 C 491.833,26.1667 491.833,26.1667 490.5,25.5 Z"/></g>
<g><path style="opacity:1" fill="#c78d7d" d="M 163.5,24.5 C 164.5,24.5 165.5,24.5 166.5,24.5C 166.5,32.5 166.5,40.5 166.5,48.5C 154.829,48.3335 143.162,48.5001 131.5,49C 124.78,53.2783 121.947,59.4449 123,67.5C 120.65,69.6829 118.483,72.0163 116.5,74.5C 115.086,67.377 115.586,60.377 118,53.5C 121.41,47.7591 124.91,42.0925 128.5,36.5C 131.602,33.7407 135.269,32.2407 139.5,32C 144.782,25.5784 151.448,23.745 159.5,26.5C 161.171,26.3318 162.504,25.6651 163.5,24.5 Z"/></g>
<g><path style="opacity:0.004" fill="#fefffe" d="M 820.5,28.5 C 821.833,29.1667 821.833,29.1667 820.5,28.5 Z"/></g>
<g><path style="opacity:1" fill="#b4cfd5" d="M 174.5,29.5 C 187.69,28.3119 199.69,31.4786 210.5,39C 202.658,46.675 194.992,54.5083 187.5,62.5C 183.167,62.5 178.833,62.5 174.5,62.5C 174.5,51.5 174.5,40.5 174.5,29.5 Z"/></g>
<g><path style="opacity:1" fill="#6d7e83" d="M 174.5,29.5 C 174.5,40.5 174.5,51.5 174.5,62.5C 178.833,62.5 183.167,62.5 187.5,62.5C 183.03,63.4861 178.363,63.8195 173.5,63.5C 173.172,51.9877 173.505,40.6544 174.5,29.5 Z"/></g>
<g><path style="opacity:0.004" fill="#fefffe" d="M 5.5,32.5 C 6.83333,33.1667 6.83333,33.1667 5.5,32.5 Z"/></g>
<g><path style="opacity:0.004" fill="#fefffe" d="M 781.5,37.5 C 782.833,38.1667 782.833,38.1667 781.5,37.5 Z"/></g>
<g><path style="opacity:0.004" fill="#fefffe" d="M 808.5,37.5 C 809.833,38.1667 809.833,38.1667 808.5,37.5 Z"/></g>
<g><path style="opacity:0.004" fill="#fefffe" d="M 107.5,38.5 C 108.833,39.1667 108.833,39.1667 107.5,38.5 Z"/></g>
<g><path style="opacity:0.004" fill="#fefffe" d="M 552.5,45.5 C 553.833,46.1667 553.833,46.1667 552.5,45.5 Z"/></g>
<g><path style="opacity:0.004" fill="#fefffe" d="M 253.5,55.5 C 254.833,56.1667 254.833,56.1667 253.5,55.5 Z"/></g>
<g><path style="opacity:0.004" fill="#fefffe" d="M 393.5,57.5 C 394.833,58.1667 394.833,58.1667 393.5,57.5 Z"/></g>
<g><path style="opacity:1" fill="#cedfe3" d="M 202.5,98.5 C 193.167,98.5 183.833,98.5 174.5,98.5C 174.5,89.1667 174.5,79.8333 174.5,70.5C 179.032,70.8182 183.366,70.4849 187.5,69.5C 188.922,69.2914 190.255,68.7914 191.5,68C 199.167,60.3333 206.833,52.6667 214.5,45C 216.903,44.3698 218.737,45.2031 220,47.5C 220.725,49.9494 221.725,52.2827 223,54.5C 223.667,55.8333 223.667,57.1667 223,58.5C 218.54,60.0627 214.54,62.396 211,65.5C 209.908,75.445 209.075,85.445 208.5,95.5C 206.473,96.5133 204.473,97.5133 202.5,98.5 Z"/></g>
<g><path style="opacity:0.004" fill="#fefffe" d="M 32.5,71.5 C 33.8333,72.1667 33.8333,72.1667 32.5,71.5 Z"/></g>
<g><path style="opacity:1" fill="#8b9798" d="M 187.5,69.5 C 183.366,70.4849 179.032,70.8182 174.5,70.5C 174.5,79.8333 174.5,89.1667 174.5,98.5C 183.833,98.5 193.167,98.5 202.5,98.5C 193.014,99.4938 183.348,99.8271 173.5,99.5C 173.5,89.5 173.5,79.5 173.5,69.5C 178.167,69.5 182.833,69.5 187.5,69.5 Z"/></g>
<g><path style="opacity:1" fill="#8f51fc" d="M 437.5,65.5 C 437.5,68.8333 437.5,72.1667 437.5,75.5C 423.5,75.5 409.5,75.5 395.5,75.5C 395.172,86.0135 395.506,96.3468 396.5,106.5C 409.99,107.496 423.656,107.829 437.5,107.5C 437.5,110.5 437.5,113.5 437.5,116.5C 422.167,116.5 406.833,116.5 391.5,116.5C 389.832,114.66 388.332,112.66 387,110.5C 386.084,96.1018 386.584,82.1018 388.5,68.5C 390.221,66.3057 392.555,65.139 395.5,65C 409.673,64.1727 423.673,64.3393 437.5,65.5 Z"/></g>
<g><path style="opacity:0.723" fill="#8665ce" d="M 437.5,65.5 C 438.482,68.9619 438.815,72.6286 438.5,76.5C 424.5,76.5 410.5,76.5 396.5,76.5C 396.5,86.5 396.5,96.5 396.5,106.5C 395.506,96.3468 395.172,86.0135 395.5,75.5C 409.5,75.5 423.5,75.5 437.5,75.5C 437.5,72.1667 437.5,68.8333 437.5,65.5 Z"/></g>
<g><path style="opacity:0.094" fill="#8562dc" d="M 504.5,65.5 C 503.432,66.4345 502.099,66.7678 500.5,66.5C 500.5,83.5 500.5,100.5 500.5,117.5C 499.503,100.341 499.17,83.008 499.5,65.5C 501.167,65.5 502.833,65.5 504.5,65.5 Z"/></g>
<g><path style="opacity:1" fill="#8c51fb" d="M 616.5,64.5 C 628.624,64.55 640.958,64.55 653.5,64.5C 652.391,65.29 651.058,65.79 649.5,66C 651.891,66.2868 654.224,66.7868 656.5,67.5C 657.293,67.0688 658.127,66.7355 659,66.5C 660.011,66.8919 660.511,67.5585 660.5,68.5C 662.883,67.538 663.883,68.538 663.5,71.5C 664.5,71.5 665.5,71.5 666.5,71.5C 666.5,77.5 666.5,83.5 666.5,89.5C 665.5,89.5 664.5,89.5 663.5,89.5C 663.579,90.9305 663.246,92.2638 662.5,93.5C 657.533,94.329 652.533,94.829 647.5,95C 646.845,96.4866 645.845,97.6533 644.5,98.5C 641.139,97.9736 637.972,96.9736 635,95.5C 633.862,95.9891 632.695,96.3225 631.5,96.5C 629.856,96.2865 628.356,96.6198 627,97.5C 626.667,104.167 626.333,110.833 626,117.5C 622.34,117.597 618.84,117.597 615.5,117.5C 615.194,99.7864 615.527,82.1198 616.5,64.5 Z M 626.5,76.5 C 636.5,76.5 646.5,76.5 656.5,76.5C 656.5,79.5 656.5,82.5 656.5,85.5C 646.5,85.5 636.5,85.5 626.5,85.5C 626.5,82.5 626.5,79.5 626.5,76.5 Z"/></g>
<g><path style="opacity:1" fill="#845ddd" d="M 656.5,85.5 C 656.5,82.5 656.5,79.5 656.5,76.5C 646.5,76.5 636.5,76.5 626.5,76.5C 636.446,74.5247 646.779,73.8581 657.5,74.5C 657.815,78.3714 657.482,82.0381 656.5,85.5 Z"/></g>
<g><path style="opacity:1" fill="#191b1c" d="M 182.5,78.5 C 184.39,78.2965 185.89,78.9632 187,80.5C 187.784,83.7603 187.617,86.9269 186.5,90C 184.251,90.8632 182.418,90.3632 181,88.5C 180.037,84.8513 180.537,81.518 182.5,78.5 Z"/></g>
<g><path style="opacity:1" fill="#06080b" d="M 196.5,79.5 C 198.144,79.2865 199.644,79.6198 201,80.5C 201.784,83.7603 201.617,86.9269 200.5,90C 198.888,90.7203 197.388,90.5536 196,89.5C 195.253,86.0764 195.42,82.7431 196.5,79.5 Z"/></g>
<g><path style="opacity:0.004" fill="#fefffe" d="M 725.5,80.5 C 726.833,81.1667 726.833,81.1667 725.5,80.5 Z"/></g>
<g><path style="opacity:0.524" fill="#855cdc" d="M 559.5,70.5 C 558.536,83.7841 558.203,97.1175 558.5,110.5C 557.34,97.6732 557.173,84.6732 558,71.5C 558.383,70.944 558.883,70.6107 559.5,70.5 Z"/></g>
<g><path style="opacity:0.004" fill="#fefffe" d="M 323.5,83.5 C 324.833,84.1667 324.833,84.1667 323.5,83.5 Z"/></g>
<g><path style="opacity:1" fill="#8b53f9" d="M 452.5,64.5 C 453.43,71.7771 453.764,79.1104 453.5,86.5C 464.014,86.8276 474.347,86.4942 484.5,85.5C 484.334,78.825 484.5,72.1583 485,65.5C 488.325,64.4171 491.825,64.4171 495.5,65.5C 494.504,80.6576 494.17,95.9909 494.5,111.5C 493.833,114.167 492.167,115.833 489.5,116.5C 474.167,116.5 458.833,116.5 443.5,116.5C 443.5,113.5 443.5,110.5 443.5,107.5C 457.5,107.5 471.5,107.5 485.5,107.5C 485.81,104.287 485.477,101.287 484.5,98.5C 484.389,97.8826 484.056,97.3826 483.5,97C 471.071,96.9607 458.738,96.2941 446.5,95C 444.959,93.4207 443.792,91.5873 443,89.5C 442.5,81.5069 442.334,73.5069 442.5,65.5C 445.807,64.9492 449.14,64.6159 452.5,64.5 Z"/></g>
<g><path style="opacity:0.38" fill="#8662d7" d="M 452.5,64.5 C 453.117,64.6107 453.617,64.944 454,65.5C 454.5,72.1583 454.666,78.825 454.5,85.5C 464.5,85.5 474.5,85.5 484.5,85.5C 474.347,86.4942 464.014,86.8276 453.5,86.5C 453.764,79.1104 453.43,71.7771 452.5,64.5 Z"/></g>
<g><path style="opacity:0.399" fill="#8761dc" d="M 626.5,76.5 C 626.5,79.5 626.5,82.5 626.5,85.5C 636.5,85.5 646.5,85.5 656.5,85.5C 646.347,86.4942 636.014,86.8276 625.5,86.5C 625.187,82.9581 625.521,79.6248 626.5,76.5 Z"/></g>
<g><path style="opacity:1" fill="#81959f" d="M 222.5,65.5 C 223.822,68.7681 224.489,72.4348 224.5,76.5C 224.333,80.1667 224.167,83.8333 224,87.5C 221.75,88.7079 219.583,90.0413 217.5,91.5C 216.335,84.1893 216.169,76.856 217,69.5C 219.463,68.9678 221.297,67.6345 222.5,65.5 Z"/></g>
<g><path style="opacity:0.82" fill="#8860e3" d="M 388.5,68.5 C 386.584,82.1018 386.084,96.1018 387,110.5C 388.332,112.66 389.832,114.66 391.5,116.5C 387.743,115.233 385.576,112.566 385,108.5C 384.333,97.1667 384.333,85.8333 385,74.5C 385.424,71.9746 386.59,69.9746 388.5,68.5 Z"/></g>
<g><path style="opacity:1" fill="#8b52fb" d="M 551.5,70.5 C 552.459,76.1385 552.626,81.8051 552,87.5C 549.48,88.2066 546.98,89.04 544.5,90C 545.772,91.3068 546.772,92.8068 547.5,94.5C 548.833,94.8333 550.167,95.1667 551.5,95.5C 552.661,99.7953 552.828,104.129 552,108.5C 551,108.833 550,109.167 549,109.5C 548.51,110.793 548.343,112.127 548.5,113.5C 547.167,113.5 545.833,113.5 544.5,113.5C 544.5,114.5 544.5,115.5 544.5,116.5C 530.323,116.171 516.323,116.504 502.5,117.5C 501.604,118.506 500.938,118.506 500.5,117.5C 500.5,100.5 500.5,83.5 500.5,66.5C 502.099,66.7678 503.432,66.4345 504.5,65.5C 517.588,65.1949 530.921,65.0282 544.5,65C 547.595,65.9354 549.929,67.7687 551.5,70.5 Z M 541.5,76.5 C 541.5,79.5 541.5,82.5 541.5,85.5C 531.5,85.5 521.5,85.5 511.5,85.5C 511.5,82.5 511.5,79.5 511.5,76.5C 521.5,76.5 531.5,76.5 541.5,76.5 Z M 541.5,96.5 C 541.5,99.8333 541.5,103.167 541.5,106.5C 531.5,106.5 521.5,106.5 511.5,106.5C 511.5,103.167 511.5,99.8333 511.5,96.5C 521.5,96.5 531.5,96.5 541.5,96.5 Z"/></g>
<g><path style="opacity:0.376" fill="#8465cf" d="M 541.5,76.5 C 531.5,76.5 521.5,76.5 511.5,76.5C 511.5,79.5 511.5,82.5 511.5,85.5C 510.521,82.3752 510.187,79.0419 510.5,75.5C 521.014,75.1724 531.347,75.5058 541.5,76.5 Z"/></g>
<g><path style="opacity:0.92" fill="#8561d8" d="M 726.5,72.5 C 726.461,73.5832 726.127,74.5832 725.5,75.5C 711.85,76.4992 698.183,76.8325 684.5,76.5C 684.5,86.5 684.5,96.5 684.5,106.5C 694.167,106.5 703.833,106.5 713.5,106.5C 704.657,107.248 695.657,107.915 686.5,108.5C 685.5,108.167 684.5,107.833 683.5,107.5C 682.523,96.8853 682.19,86.2186 682.5,75.5C 696.516,75.8326 710.516,75.4992 724.5,74.5C 724.855,73.4777 725.522,72.811 726.5,72.5 Z"/></g>
<g><path style="opacity:0.004" fill="#fefffe" d="M 401.5,89.5 C 402.833,90.1667 402.833,90.1667 401.5,89.5 Z"/></g>
<g><path style="opacity:1" fill="#8658e5" d="M 551.5,70.5 C 553.03,73.6952 553.696,77.1952 553.5,81C 554.017,85.0375 553.017,88.5375 550.5,91.5C 551.522,92.354 552.355,93.354 553,94.5C 553.861,100.585 553.527,106.585 552,112.5C 550.833,113.667 549.667,114.833 548.5,116C 533.263,117.468 517.93,117.968 502.5,117.5C 516.323,116.504 530.323,116.171 544.5,116.5C 544.5,115.5 544.5,114.5 544.5,113.5C 545.833,113.5 547.167,113.5 548.5,113.5C 548.343,112.127 548.51,110.793 549,109.5C 550,109.167 551,108.833 552,108.5C 552.828,104.129 552.661,99.7953 551.5,95.5C 550.167,95.1667 548.833,94.8333 547.5,94.5C 546.772,92.8068 545.772,91.3068 544.5,90C 546.98,89.04 549.48,88.2066 552,87.5C 552.626,81.8051 552.459,76.1385 551.5,70.5 Z"/></g>
<g><path style="opacity:0.098" fill="#8466ca" d="M 616.5,64.5 C 615.527,82.1198 615.194,99.7864 615.5,117.5C 614.338,100.338 614.171,83.0049 615,65.5C 615.383,64.944 615.883,64.6107 616.5,64.5 Z"/></g>
<g><path style="opacity:0.004" fill="#fefffe" d="M 783.5,90.5 C 784.833,91.1667 784.833,91.1667 783.5,90.5 Z"/></g>
<g><path style="opacity:0.004" fill="#fefffe" d="M 415.5,94.5 C 416.833,95.1667 416.833,95.1667 415.5,94.5 Z"/></g>
<g><path style="opacity:1" fill="#e4c3bb" d="M 109.5,116.5 C 108.833,122.167 108.167,127.833 107.5,133.5C 101.912,124.685 100.079,115.018 102,104.5C 106.304,97.5593 108.804,98.2259 109.5,106.5C 111.467,106.739 113.301,106.406 115,105.5C 115.333,98.8333 115.667,92.1667 116,85.5C 120,80.8333 124,76.1667 128,71.5C 129.19,67.6192 129.857,63.6192 130,59.5C 131.167,58.3333 132.333,57.1667 133.5,56C 144.495,55.5002 155.495,55.3335 166.5,55.5C 166.667,74.8362 166.5,94.1695 166,113.5C 164.045,114.453 162.378,115.787 161,117.5C 158.335,122.669 156.168,128.002 154.5,133.5C 145.283,132.791 137.95,136.124 132.5,143.5C 131.277,144.614 129.944,144.781 128.5,144C 120.559,136.201 116.059,126.701 115,115.5C 112.765,114.02 110.932,114.353 109.5,116.5 Z"/></g>
<g><path style="opacity:1" fill="#161110" d="M 131.5,86.5 C 142.718,84.562 152.218,87.562 160,95.5C 160.723,98.1249 159.723,99.7916 157,100.5C 148.265,93.283 138.598,91.6163 128,95.5C 125.199,94.8954 124.199,93.2287 125,90.5C 127.013,88.7518 129.18,87.4185 131.5,86.5 Z"/></g>
<g><path style="opacity:0.024" fill="#875fdd" d="M 495.5,65.5 C 496.661,79.3272 496.827,93.3272 496,107.5C 495.79,109.058 495.29,110.391 494.5,111.5C 494.17,95.9909 494.504,80.6576 495.5,65.5 Z"/></g>
<g><path style="opacity:0.96" fill="#7e59cd" d="M 541.5,96.5 C 531.5,96.5 521.5,96.5 511.5,96.5C 511.5,99.8333 511.5,103.167 511.5,106.5C 510.518,103.038 510.185,99.3714 510.5,95.5C 521.014,95.1724 531.347,95.5058 541.5,96.5 Z"/></g>
<g><path style="opacity:1" fill="#8755f2" d="M 653.5,64.5 C 664.22,64.7227 669.22,70.2227 668.5,81C 669.595,87.7586 667.262,92.7586 661.5,96C 657.167,96.3333 652.833,96.6667 648.5,97C 650.041,98.3712 651.375,99.8712 652.5,101.5C 653.203,103.716 654.536,105.549 656.5,107C 660.089,107.207 663.589,107.707 667,108.5C 667.498,111.482 667.665,114.482 667.5,117.5C 667.565,117.938 667.399,118.272 667,118.5C 661.917,117.693 656.75,117.193 651.5,117C 644.631,110.298 637.964,103.465 631.5,96.5C 632.695,96.3225 633.862,95.9891 635,95.5C 637.972,96.9736 641.139,97.9736 644.5,98.5C 645.845,97.6533 646.845,96.4866 647.5,95C 652.533,94.829 657.533,94.329 662.5,93.5C 663.246,92.2638 663.579,90.9305 663.5,89.5C 664.5,89.5 665.5,89.5 666.5,89.5C 666.5,83.5 666.5,77.5 666.5,71.5C 665.5,71.5 664.5,71.5 663.5,71.5C 663.883,68.538 662.883,67.538 660.5,68.5C 660.511,67.5585 660.011,66.8919 659,66.5C 658.127,66.7355 657.293,67.0688 656.5,67.5C 654.224,66.7868 651.891,66.2868 649.5,66C 651.058,65.79 652.391,65.29 653.5,64.5 Z"/></g>
<g><path style="opacity:1" fill="#150f0e" d="M 145.5,101.5 C 146.93,101.421 148.264,101.754 149.5,102.5C 150.833,106.5 150.833,110.5 149.5,114.5C 147.356,115.953 145.523,115.62 144,113.5C 142.994,109.198 143.494,105.198 145.5,101.5 Z"/></g>
<g><path style="opacity:0.004" fill="#fefffe" d="M 313.5,103.5 C 314.833,104.167 314.833,104.167 313.5,103.5 Z"/></g>
<g><path style="opacity:1" fill="#5c696d" d="M 184.5,106.5 C 181.167,106.5 177.833,106.5 174.5,106.5C 174.5,108.833 174.5,111.167 174.5,113.5C 173.527,111.052 173.194,108.385 173.5,105.5C 177.371,105.185 181.038,105.518 184.5,106.5 Z"/></g>
<g><path style="opacity:1" fill="#ad5f67" d="M 191.5,105.5 C 193.833,105.5 196.167,105.5 198.5,105.5C 199.321,111.158 197.154,112.825 192,110.5C 191.506,108.866 191.34,107.199 191.5,105.5 Z"/></g>
<g><path style="opacity:0.376" fill="#8262ce" d="M 652.5,101.5 C 656.732,106.128 662.066,107.795 668.5,106.5C 668.815,110.371 668.482,114.038 667.5,117.5C 667.665,114.482 667.498,111.482 667,108.5C 663.589,107.707 660.089,107.207 656.5,107C 654.536,105.549 653.203,103.716 652.5,101.5 Z"/></g>
<g><path style="opacity:1" fill="#8c53f9" d="M 726.5,72.5 C 725.522,72.811 724.855,73.4777 724.5,74.5C 710.516,75.4992 696.516,75.8326 682.5,75.5C 682.19,86.2186 682.523,96.8853 683.5,107.5C 684.5,107.833 685.5,108.167 686.5,108.5C 695.657,107.915 704.657,107.248 713.5,106.5C 713.5,103.167 713.5,99.8333 713.5,96.5C 707.107,96.464 700.773,96.6307 694.5,97C 692.724,93.4498 692.391,89.6165 693.5,85.5C 704.187,85.168 714.854,85.5013 725.5,86.5C 725.833,87.1667 726.167,87.8333 726.5,88.5C 725.699,96.1178 725.199,103.784 725,111.5C 724.215,113.286 723.049,114.786 721.5,116C 717.363,117.062 713.196,117.895 709,118.5C 698.146,117.966 687.312,117.133 676.5,116C 675.213,114.59 674.046,113.09 673,111.5C 672.333,98.1667 672.333,84.8333 673,71.5C 674.868,67.4794 678.035,65.3128 682.5,65C 696.829,64.5001 711.163,64.3334 725.5,64.5C 725.279,67.2788 725.612,69.9455 726.5,72.5 Z"/></g>
<g><path style="opacity:1" fill="#94afb7" d="M 231.5,101.5 C 234.723,103.029 237.89,104.695 241,106.5C 241.8,114.216 241.633,121.883 240.5,129.5C 238.17,131.667 235.503,133.334 232.5,134.5C 231.501,123.52 231.168,112.52 231.5,101.5 Z"/></g>
<g><path style="opacity:1" fill="#8b53f7" d="M 558.5,110.5 C 558.203,97.1175 558.536,83.7841 559.5,70.5C 560.85,66.9752 563.516,65.1418 567.5,65C 579.226,64.901 590.893,64.901 602.5,65C 605.937,66.1049 608.437,68.2716 610,71.5C 610.667,84.8333 610.667,98.1667 610,111.5C 608.833,114 607,115.833 604.5,117C 590.833,117.667 577.167,117.667 563.5,117C 560.507,115.841 558.84,113.675 558.5,110.5 Z M 569.5,76.5 C 579.167,76.5 588.833,76.5 598.5,76.5C 598.5,86.5 598.5,96.5 598.5,106.5C 588.833,106.5 579.167,106.5 569.5,106.5C 569.5,96.5 569.5,86.5 569.5,76.5 Z"/></g>
<g><path style="opacity:0.815" fill="#865fdf" d="M 569.5,76.5 C 579.653,75.5058 589.986,75.1724 600.5,75.5C 600.81,86.2186 600.477,96.8853 599.5,107.5C 589.851,108.665 580.184,108.832 570.5,108C 569.944,107.617 569.611,107.117 569.5,106.5C 579.167,106.5 588.833,106.5 598.5,106.5C 598.5,96.5 598.5,86.5 598.5,76.5C 588.833,76.5 579.167,76.5 569.5,76.5 Z"/></g>
<g><path style="opacity:1" fill="#abc6cd" d="M 222.5,95.5 C 223.826,99.6139 224.493,104.114 224.5,109C 224.891,117.383 223.891,125.55 221.5,133.5C 220.325,133.719 219.325,133.386 218.5,132.5C 213.707,126.406 209.04,120.239 204.5,114C 205.204,110.872 205.704,107.706 206,104.5C 211.642,101.599 217.142,98.5988 222.5,95.5 Z"/></g>
<g><path style="opacity:0.969" fill="#835dd5" d="M 396.5,106.5 C 410.5,106.5 424.5,106.5 438.5,106.5C 438.5,110.167 438.5,113.833 438.5,117.5C 422.658,117.83 406.991,117.496 391.5,116.5C 406.833,116.5 422.167,116.5 437.5,116.5C 437.5,113.5 437.5,110.5 437.5,107.5C 423.656,107.829 409.99,107.496 396.5,106.5 Z"/></g>
<g><path style="opacity:0.952" fill="#815ad4" d="M 484.5,98.5 C 485.477,101.287 485.81,104.287 485.5,107.5C 471.5,107.5 457.5,107.5 443.5,107.5C 443.5,110.5 443.5,113.5 443.5,116.5C 458.833,116.5 474.167,116.5 489.5,116.5C 474.009,117.496 458.342,117.83 442.5,117.5C 442.5,113.833 442.5,110.167 442.5,106.5C 456.5,106.5 470.5,106.5 484.5,106.5C 484.5,103.833 484.5,101.167 484.5,98.5 Z"/></g>
<g><path style="opacity:0.004" fill="#fefffe" d="M 596.5,119.5 C 597.833,120.167 597.833,120.167 596.5,119.5 Z"/></g>
<g><path style="opacity:0.004" fill="#fefffe" d="M 654.5,120.5 C 655.833,121.167 655.833,121.167 654.5,120.5 Z"/></g>
<g><path style="opacity:1" fill="#b1ccd2" d="M 184.5,106.5 C 185.186,115.016 189.853,119.182 198.5,119C 204.938,125.432 210.605,132.432 215.5,140C 213.966,141.868 212.133,143.368 210,144.5C 206.511,141.68 203.011,138.847 199.5,136C 194.997,134.22 190.33,133.387 185.5,133.5C 183.878,125.579 180.211,118.912 174.5,113.5C 174.5,111.167 174.5,108.833 174.5,106.5C 177.833,106.5 181.167,106.5 184.5,106.5 Z"/></g>
<g><path style="opacity:0.004" fill="#fefffe" d="M 577.5,121.5 C 578.833,122.167 578.833,122.167 577.5,121.5 Z"/></g>
<g><path style="opacity:1" fill="#695753" d="M 109.5,116.5 C 109.829,122.537 109.496,128.537 108.5,134.5C 107.893,134.376 107.56,134.043 107.5,133.5C 108.167,127.833 108.833,122.167 109.5,116.5 Z"/></g>
<g><path style="opacity:1" fill="#c99d91" d="M 168.5,119.5 C 169.822,119.33 170.989,119.663 172,120.5C 174.838,124.172 177.171,128.172 179,132.5C 179.667,133.5 179.667,134.5 179,135.5C 174.632,138.42 169.799,139.253 164.5,138C 161.793,136.136 160.959,133.636 162,130.5C 164.682,127.135 166.849,123.469 168.5,119.5 Z"/></g>
<g><path style="opacity:0.004" fill="#fefffe" d="M 465.5,132.5 C 466.833,133.167 466.833,133.167 465.5,132.5 Z"/></g>
<g><path style="opacity:0.004" fill="#fefffe" d="M 724.5,136.5 C 725.833,137.167 725.833,137.167 724.5,136.5 Z"/></g>
<g><path style="opacity:0.004" fill="#fefffe" d="M 657.5,138.5 C 658.833,139.167 658.833,139.167 657.5,138.5 Z"/></g>
<g><path style="opacity:0.004" fill="#fefffe" d="M 65.5,143.5 C 66.8333,144.167 66.8333,144.167 65.5,143.5 Z"/></g>
<g><path style="opacity:0.004" fill="#fefffe" d="M 89.5,143.5 C 90.8333,144.167 90.8333,144.167 89.5,143.5 Z"/></g>
<g><path style="opacity:0.004" fill="#fefffe" d="M 625.5,148.5 C 626.833,149.167 626.833,149.167 625.5,148.5 Z"/></g>
<g><path style="opacity:0.004" fill="#fefffe" d="M 2.5,149.5 C 3.83333,150.167 3.83333,150.167 2.5,149.5 Z"/></g>
<g><path style="opacity:0.004" fill="#fefffe" d="M 457.5,151.5 C 458.833,152.167 458.833,152.167 457.5,151.5 Z"/></g>
<g><path style="opacity:0.004" fill="#fefffe" d="M 509.5,152.5 C 510.833,153.167 510.833,153.167 509.5,152.5 Z"/></g>
<g><path style="opacity:1" fill="#cb8e7e" d="M 218.5,168.5 C 218.068,169.71 217.401,170.71 216.5,171.5C 214.396,171.201 212.396,171.534 210.5,172.5C 191.254,195.418 168.587,199.585 142.5,185C 128.223,174.275 119.723,160.109 117,142.5C 121.168,147.913 126.501,151.58 133,153.5C 135.488,150.212 138.321,147.046 141.5,144C 148.263,139.449 154.929,139.449 161.5,144C 167.201,145.759 172.868,145.759 178.5,144C 184.468,139.752 190.801,139.419 197.5,143C 200.733,146.233 203.9,149.4 207,152.5C 213.366,150.796 218.7,147.463 223,142.5C 223.667,144.5 223.667,146.5 223,148.5C 221.067,153.467 219.233,158.467 217.5,163.5C 218.046,165.135 218.38,166.801 218.5,168.5 Z"/></g>
<g><path style="opacity:1" fill="#120807" d="M 147.5,149.5 C 150.737,151.681 154.403,153.181 158.5,154C 166.5,154.667 174.5,154.667 182.5,154C 185.433,152.946 188.266,151.78 191,150.5C 194.745,150.884 195.911,152.718 194.5,156C 178.528,163.019 162.528,163.185 146.5,156.5C 145.154,153.9 145.488,151.567 147.5,149.5 Z"/></g>
<g><path style="opacity:0.008" fill="#817cf7" d="M 491.5,155.5 C 478.673,156.331 465.673,156.831 452.5,157C 450.846,157.608 449.179,158.108 447.5,158.5C 448.347,157.034 449.68,156.2 451.5,156C 464.829,155.5 478.163,155.333 491.5,155.5 Z"/></g>
<g><path style="opacity:1" fill="#8c53fa" d="M 329.5,155.5 C 346.053,155.525 362.72,155.525 379.5,155.5C 380.086,155.709 380.586,156.043 381,156.5C 381.789,160.091 381.622,163.591 380.5,167C 373.842,167.5 367.175,167.666 360.5,167.5C 360.5,177.5 360.5,187.5 360.5,197.5C 367.175,197.334 373.842,197.5 380.5,198C 381.444,200.719 381.777,203.552 381.5,206.5C 378.833,206.5 376.167,206.5 373.5,206.5C 373.5,205.167 373.5,203.833 373.5,202.5C 369.673,202.44 369.006,203.607 371.5,206C 357.171,206.5 342.837,206.667 328.5,206.5C 328.5,203.833 328.5,201.167 328.5,198.5C 335.779,198.69 342.946,198.69 350,198.5C 350.5,187.505 350.667,176.505 350.5,165.5C 343.191,166.248 335.858,166.582 328.5,166.5C 328.323,162.766 328.656,159.099 329.5,155.5 Z"/></g>
<g><path style="opacity:0.999" fill="#8a52fc" d="M 509.5,155.5 C 520.659,156.331 531.993,156.831 543.5,157C 547.605,158.569 550.438,161.402 552,165.5C 552.667,177.167 552.667,188.833 552,200.5C 551.667,200.167 551.333,199.833 551,199.5C 550.51,200.793 550.343,202.127 550.5,203.5C 547.832,203.334 545.498,202.334 543.5,200.5C 542.833,189.341 542.167,178.341 541.5,167.5C 531.5,167.5 521.5,167.5 511.5,167.5C 509.882,175.602 509.049,183.935 509,192.5C 508.333,191.833 507.667,191.167 507,190.5C 506.667,193.5 506.333,196.5 506,199.5C 505.167,202 504,202.167 502.5,200C 503.784,198.703 503.617,197.536 502,196.5C 501.139,184.79 501.473,173.123 503,161.5C 504.558,159.232 506.724,158.066 509.5,158C 508.944,157.617 508.611,157.117 508.5,156.5C 508.5,155.833 508.833,155.5 509.5,155.5 Z M 511.5,167.5 C 521.5,167.5 531.5,167.5 541.5,167.5C 541.5,177.5 541.5,187.5 541.5,197.5C 531.5,197.5 521.5,197.5 511.5,197.5C 511.5,187.5 511.5,177.5 511.5,167.5 Z"/></g>
<g><path style="opacity:1" fill="#8956fa" d="M 560.5,155.5 C 576.709,155.538 592.709,155.538 608.5,155.5C 609.344,159.099 609.677,162.766 609.5,166.5C 602.978,166.177 596.645,166.51 590.5,167.5C 590.667,181.171 590.5,194.837 590,208.5C 586.881,208.367 583.714,208.7 580.5,209.5C 579.849,195.402 579.183,181.402 578.5,167.5C 572.021,166.509 565.354,166.176 558.5,166.5C 558.113,162.556 558.78,158.889 560.5,155.5 Z"/></g>
<g><path style="opacity:1" fill="#8a54fa" d="M 725.5,156.5 C 724.521,159.625 724.187,162.958 724.5,166.5C 710.99,166.171 697.656,166.504 684.5,167.5C 683.506,177.653 683.172,187.986 683.5,198.5C 697.167,198.5 710.833,198.5 724.5,198.5C 724.5,201.5 724.5,204.5 724.5,207.5C 709.167,207.5 693.833,207.5 678.5,207.5C 675.888,206.723 674.055,205.056 673,202.5C 672.333,189.5 672.333,176.5 673,163.5C 674.27,159.23 677.104,156.73 681.5,156C 696.496,155.246 711.162,155.412 725.5,156.5 Z"/></g>
<g><path style="opacity:1" fill="#895ee9" d="M 404.5,167.5 C 401.961,166.149 399.294,164.982 396.5,164C 397.361,161.679 396.361,160.513 393.5,160.5C 393.227,162.451 393.893,163.951 395.5,165C 395,165.5 394.5,166 394,166.5C 392.89,164.963 391.39,164.297 389.5,164.5C 389.286,162.856 389.62,161.356 390.5,160C 389.004,159.493 387.837,159.993 387,161.5C 386.197,177.544 386.364,193.544 387.5,209.5C 386.504,209.586 385.671,209.252 385,208.5C 384.333,192.5 384.333,176.5 385,160.5C 386.409,157.05 388.909,155.55 392.5,156C 397.002,159.336 401.002,163.169 404.5,167.5 Z"/></g>
<g><path style="opacity:1" fill="#8b50fd" d="M 429.5,155.5 C 431.5,155.5 433.5,155.5 435.5,155.5C 436.485,172.423 436.818,189.423 436.5,206.5C 433.833,206.5 431.167,206.5 428.5,206.5C 427.862,204.54 427.862,202.707 428.5,201C 426.221,200.527 424.221,199.527 422.5,198C 424.305,197.028 425.972,195.861 427.5,194.5C 426.975,193.808 426.308,193.308 425.5,193C 426.849,192.228 427.682,191.061 428,189.5C 428.5,179.506 428.666,169.506 428.5,159.5C 428.433,158.041 428.766,156.708 429.5,155.5 Z"/></g>
<g><path style="opacity:0.231" fill="#7e63c7" d="M 429.5,155.5 C 428.766,156.708 428.433,158.041 428.5,159.5C 427.833,169.167 427.167,178.833 426.5,188.5C 426.333,177.828 426.5,167.161 427,156.5C 427.671,155.748 428.504,155.414 429.5,155.5 Z"/></g>
<g><path style="opacity:0.004" fill="#fefffe" d="M 262.5,163.5 C 263.833,164.167 263.833,164.167 262.5,163.5 Z"/></g>
<g><path style="opacity:0.373" fill="#8361dc" d="M 492.5,155.5 C 493.822,155.33 494.989,155.663 496,156.5C 496.499,160.152 496.665,163.818 496.5,167.5C 482.5,167.5 468.5,167.5 454.5,167.5C 467.656,166.504 480.99,166.171 494.5,166.5C 494.964,162.498 494.298,158.831 492.5,155.5 Z"/></g>
<g><path style="opacity:0.373" fill="#835fdd" d="M 560.5,155.5 C 558.78,158.889 558.113,162.556 558.5,166.5C 565.354,166.176 572.021,166.509 578.5,167.5C 571.5,167.5 564.5,167.5 557.5,167.5C 557.335,163.818 557.501,160.152 558,156.5C 558.671,155.748 559.504,155.414 560.5,155.5 Z"/></g>
<g><path style="opacity:0.387" fill="#8462d9" d="M 608.5,155.5 C 609.117,155.611 609.617,155.944 610,156.5C 610.499,160.152 610.665,163.818 610.5,167.5C 603.833,167.5 597.167,167.5 590.5,167.5C 596.645,166.51 602.978,166.177 609.5,166.5C 609.677,162.766 609.344,159.099 608.5,155.5 Z"/></g>
<g><path style="opacity:0.38" fill="#8261d5" d="M 667.5,156.5 C 668.482,159.962 668.815,163.629 668.5,167.5C 654.5,167.5 640.5,167.5 626.5,167.5C 626.5,170.5 626.5,173.5 626.5,176.5C 640.5,176.5 654.5,176.5 668.5,176.5C 668.5,180.167 668.5,183.833 668.5,187.5C 667.167,187.5 665.833,187.5 664.5,187.5C 665.209,186.596 666.209,186.263 667.5,186.5C 667.5,183.5 667.5,180.5 667.5,177.5C 653.5,177.5 639.5,177.5 625.5,177.5C 625.5,173.833 625.5,170.167 625.5,166.5C 639.5,166.5 653.5,166.5 667.5,166.5C 667.5,163.167 667.5,159.833 667.5,156.5 Z"/></g>
<g><path style="opacity:0.38" fill="#8664dc" d="M 725.5,156.5 C 726.82,159.899 726.82,163.399 725.5,167C 711.837,167.5 698.171,167.667 684.5,167.5C 697.656,166.504 710.99,166.171 724.5,166.5C 724.187,162.958 724.521,159.625 725.5,156.5 Z"/></g>
<g><path style="opacity:0.004" fill="#fefffe" d="M 805.5,169.5 C 806.833,170.167 806.833,170.167 805.5,169.5 Z"/></g>
<g><path style="opacity:0.709" fill="#8664cc" d="M 578.5,167.5 C 579.183,181.402 579.849,195.402 580.5,209.5C 578.518,195.873 577.851,181.873 578.5,167.5 Z"/></g>
<g><path style="opacity:0.11" fill="#815fd3" d="M 730.5,156.5 C 730.525,174.14 730.525,191.473 730.5,208.5C 729.167,191.167 729.167,173.833 730.5,156.5 Z"/></g>
<g><path style="opacity:1" fill="#865ce3" d="M 329.5,155.5 C 328.656,159.099 328.323,162.766 328.5,166.5C 335.858,166.582 343.191,166.248 350.5,165.5C 350.667,176.505 350.5,187.505 350,198.5C 342.946,198.69 335.779,198.69 328.5,198.5C 328.5,201.167 328.5,203.833 328.5,206.5C 342.837,206.667 357.171,206.5 371.5,206C 369.006,203.607 369.673,202.44 373.5,202.5C 373.5,203.833 373.5,205.167 373.5,206.5C 376.167,206.5 378.833,206.5 381.5,206.5C 364.486,208.184 347.153,209.184 329.5,209.5C 328.914,209.291 328.414,208.957 328,208.5C 327.501,204.848 327.335,201.182 327.5,197.5C 334.5,197.5 341.5,197.5 348.5,197.5C 348.5,187.5 348.5,177.5 348.5,167.5C 341.5,167.5 334.5,167.5 327.5,167.5C 327.335,163.818 327.501,160.152 328,156.5C 328.383,155.944 328.883,155.611 329.5,155.5 Z"/></g>
<g><path style="opacity:0.373" fill="#7c61c5" d="M 454.5,176.5 C 468.171,176.333 481.837,176.5 495.5,177C 496.82,180.601 496.82,184.101 495.5,187.5C 495.784,184.223 495.451,181.057 494.5,178C 480.994,177.831 467.66,177.331 454.5,176.5 Z"/></g>
<g><path style="opacity:1" fill="#8851f9" d="M 491.5,155.5 C 491.833,155.5 492.167,155.5 492.5,155.5C 494.298,158.831 494.964,162.498 494.5,166.5C 480.99,166.171 467.656,166.504 454.5,167.5C 454.5,170.5 454.5,173.5 454.5,176.5C 467.66,177.331 480.994,177.831 494.5,178C 495.451,181.057 495.784,184.223 495.5,187.5C 482.496,187.333 469.496,187.5 456.5,188C 455.584,188.278 454.918,188.778 454.5,189.5C 453.51,195.31 453.177,201.31 453.5,207.5C 450.167,207.5 446.833,207.5 443.5,207.5C 443.5,192.833 443.5,178.167 443.5,163.5C 443.67,160.796 445.003,159.129 447.5,158.5C 449.179,158.108 450.846,157.608 452.5,157C 465.673,156.831 478.673,156.331 491.5,155.5 Z"/></g>
<g><path style="opacity:1" fill="#8a51fc" d="M 738.5,155.5 C 740.353,162.989 741.019,170.656 740.5,178.5C 751.221,179.142 761.554,178.475 771.5,176.5C 771.334,169.825 771.5,163.158 772,156.5C 775.753,155.749 779.253,155.749 782.5,156.5C 782.5,173.5 782.5,190.5 782.5,207.5C 779.167,207.5 775.833,207.5 772.5,207.5C 772.824,200.646 772.491,193.979 771.5,187.5C 763.149,187.482 754.816,187.815 746.5,188.5C 744.735,187.539 742.735,187.205 740.5,187.5C 740.5,194.167 740.5,200.833 740.5,207.5C 737.941,207.198 735.607,207.532 733.5,208.5C 732.348,209.625 731.348,209.625 730.5,208.5C 730.525,191.473 730.525,174.14 730.5,156.5C 732.973,156.73 735.64,156.397 738.5,155.5 Z"/></g>
<g><path style="opacity:1" fill="#875ee0" d="M 738.5,155.5 C 739.496,155.414 740.329,155.748 741,156.5C 741.5,163.158 741.666,169.825 741.5,176.5C 751.5,176.5 761.5,176.5 771.5,176.5C 761.554,178.475 751.221,179.142 740.5,178.5C 741.019,170.656 740.353,162.989 738.5,155.5 Z"/></g>
<g><path style="opacity:0.004" fill="#fefffe" d="M 701.5,182.5 C 702.833,183.167 702.833,183.167 701.5,182.5 Z"/></g>
<g><path style="opacity:0.004" fill="#fefffe" d="M 90.5,183.5 C 91.8333,184.167 91.8333,184.167 90.5,183.5 Z"/></g>
<g><path style="opacity:0.004" fill="#fefffe" d="M 18.5,186.5 C 19.8333,187.167 19.8333,187.167 18.5,186.5 Z"/></g>
<g><path style="opacity:1" fill="#8b51fd" d="M 404.5,167.5 C 405.249,171.78 407.582,174.78 411.5,176.5C 410.965,178.271 410.131,178.604 409,177.5C 408.333,180.167 407.667,180.167 407,177.5C 406.586,177.957 406.086,178.291 405.5,178.5C 404.148,176.364 402.482,176.03 400.5,177.5C 398.827,175.914 396.827,175.247 394.5,175.5C 394.5,185.833 394.5,196.167 394.5,206.5C 392.302,206.12 390.635,206.787 389.5,208.5C 388.833,208.833 388.167,209.167 387.5,209.5C 386.364,193.544 386.197,177.544 387,161.5C 387.837,159.993 389.004,159.493 390.5,160C 389.62,161.356 389.286,162.856 389.5,164.5C 391.39,164.297 392.89,164.963 394,166.5C 394.5,166 395,165.5 395.5,165C 393.893,163.951 393.227,162.451 393.5,160.5C 396.361,160.513 397.361,161.679 396.5,164C 399.294,164.982 401.961,166.149 404.5,167.5 Z"/></g>
<g><path style="opacity:1" fill="#8657ed" d="M 435.5,155.5 C 436.496,155.414 437.329,155.748 438,156.5C 438.818,173.211 438.652,189.878 437.5,206.5C 434.326,208.969 430.993,209.136 427.5,207C 417.333,196.833 407.167,186.667 397,176.5C 396.5,187.495 396.333,198.495 396.5,209.5C 394.194,209.007 391.861,208.674 389.5,208.5C 390.635,206.787 392.302,206.12 394.5,206.5C 394.5,196.167 394.5,185.833 394.5,175.5C 396.827,175.247 398.827,175.914 400.5,177.5C 402.482,176.03 404.148,176.364 405.5,178.5C 406.086,178.291 406.586,177.957 407,177.5C 407.667,180.167 408.333,180.167 409,177.5C 410.131,178.604 410.965,178.271 411.5,176.5C 407.582,174.78 405.249,171.78 404.5,167.5C 411.833,174.5 419.167,181.5 426.5,188.5C 427.167,178.833 427.833,169.167 428.5,159.5C 428.666,169.506 428.5,179.506 428,189.5C 427.682,191.061 426.849,192.228 425.5,193C 426.308,193.308 426.975,193.808 427.5,194.5C 425.972,195.861 424.305,197.028 422.5,198C 424.221,199.527 426.221,200.527 428.5,201C 427.862,202.707 427.862,204.54 428.5,206.5C 431.167,206.5 433.833,206.5 436.5,206.5C 436.818,189.423 436.485,172.423 435.5,155.5 Z"/></g>
<g><path style="opacity:0.553" fill="#8365df" d="M 746.5,188.5 C 744.833,188.5 743.167,188.5 741.5,188.5C 741.666,195.175 741.5,201.842 741,208.5C 738.712,208.737 736.212,208.737 733.5,208.5C 735.607,207.532 737.941,207.198 740.5,207.5C 740.5,200.833 740.5,194.167 740.5,187.5C 742.735,187.205 744.735,187.539 746.5,188.5 Z"/></g>
<g><path style="opacity:0.344" fill="#7c5fca" d="M 443.5,163.5 C 443.5,178.167 443.5,192.833 443.5,207.5C 446.833,207.5 450.167,207.5 453.5,207.5C 453.177,201.31 453.51,195.31 454.5,189.5C 454.666,195.842 454.5,202.175 454,208.5C 450.271,208.577 446.605,208.577 443,208.5C 442.172,193.328 442.339,178.328 443.5,163.5 Z"/></g>
<g><path style="opacity:0.004" fill="#fefffe" d="M 711.5,195.5 C 712.833,196.167 712.833,196.167 711.5,195.5 Z"/></g>
<g><path style="opacity:1" fill="#8956f5" d="M 508.5,156.5 C 508.611,157.117 508.944,157.617 509.5,158C 506.724,158.066 504.558,159.232 503,161.5C 501.473,173.123 501.139,184.79 502,196.5C 503.617,197.536 503.784,198.703 502.5,200C 504,202.167 505.167,202 506,199.5C 506.333,196.5 506.667,193.5 507,190.5C 507.667,191.167 508.333,191.833 509,192.5C 509.049,183.935 509.882,175.602 511.5,167.5C 511.5,177.5 511.5,187.5 511.5,197.5C 520.658,198.33 529.991,198.83 539.5,199C 541.227,200.389 542.561,202.056 543.5,204C 543.095,204.945 542.428,205.612 541.5,206C 529.813,206.278 518.146,206.778 506.5,207.5C 502.743,206.233 500.576,203.566 500,199.5C 499.333,188.167 499.333,176.833 500,165.5C 500.981,160.687 503.814,157.687 508.5,156.5 Z"/></g>
<g><path style="opacity:0.361" fill="#815fd4" d="M 684.5,167.5 C 684.5,177.5 684.5,187.5 684.5,197.5C 698.171,197.333 711.837,197.5 725.5,198C 726.456,201.394 726.789,204.894 726.5,208.5C 710.325,208.83 694.325,208.496 678.5,207.5C 693.833,207.5 709.167,207.5 724.5,207.5C 724.5,204.5 724.5,201.5 724.5,198.5C 710.833,198.5 697.167,198.5 683.5,198.5C 683.172,187.986 683.506,177.653 684.5,167.5 Z"/></g>
<g><path style="opacity:1" fill="#88a1ad" d="M 136.5,189.5 C 145.272,196.315 155.272,199.982 166.5,200.5C 166.5,205.167 166.5,209.833 166.5,214.5C 154.122,215.633 144.288,211.299 137,201.5C 136.501,197.514 136.334,193.514 136.5,189.5 Z"/></g>
<g><path style="opacity:1" fill="#8299a7" d="M 201.5,189.5 C 204.803,195.881 203.803,201.714 198.5,207C 191.017,212.123 182.684,214.623 173.5,214.5C 173.5,209.833 173.5,205.167 173.5,200.5C 184.253,200.112 193.587,196.445 201.5,189.5 Z"/></g>
<g><path style="opacity:1" fill="#855ce4" d="M 509.5,155.5 C 521.171,155.333 532.838,155.5 544.5,156C 548.68,157.002 551.514,159.502 553,163.5C 553.667,176.167 553.667,188.833 553,201.5C 552.214,204.583 550.381,206.749 547.5,208C 533.66,208.827 519.994,208.661 506.5,207.5C 518.146,206.778 529.813,206.278 541.5,206C 542.428,205.612 543.095,204.945 543.5,204C 542.561,202.056 541.227,200.389 539.5,199C 529.991,198.83 520.658,198.33 511.5,197.5C 521.5,197.5 531.5,197.5 541.5,197.5C 541.5,187.5 541.5,177.5 541.5,167.5C 542.167,178.341 542.833,189.341 543.5,200.5C 545.498,202.334 547.832,203.334 550.5,203.5C 550.343,202.127 550.51,200.793 551,199.5C 551.333,199.833 551.667,200.167 552,200.5C 552.667,188.833 552.667,177.167 552,165.5C 550.438,161.402 547.605,158.569 543.5,157C 531.993,156.831 520.659,156.331 509.5,155.5 Z"/></g>
<g><path style="opacity:1" fill="#8a53fc" d="M 629.5,155.5 C 642.344,155.171 655.011,155.505 667.5,156.5C 667.5,159.833 667.5,163.167 667.5,166.5C 653.5,166.5 639.5,166.5 625.5,166.5C 625.5,170.167 625.5,173.833 625.5,177.5C 639.5,177.5 653.5,177.5 667.5,177.5C 667.5,180.5 667.5,183.5 667.5,186.5C 666.209,186.263 665.209,186.596 664.5,187.5C 651.904,187.213 639.237,187.546 626.5,188.5C 625.521,191.625 625.187,194.958 625.5,198.5C 639.167,198.5 652.833,198.5 666.5,198.5C 666.5,201.5 666.5,204.5 666.5,207.5C 651.202,206.547 635.869,206.214 620.5,206.5C 620.627,203.755 619.46,201.755 617,200.5C 616.167,187.82 616.334,175.154 617.5,162.5C 620.18,158.874 623.846,157.04 628.5,157C 629.056,156.617 629.389,156.117 629.5,155.5 Z"/></g>
<g><path style="opacity:0.004" fill="#fefffe" d="M 562.5,202.5 C 563.833,203.167 563.833,203.167 562.5,202.5 Z"/></g>
<g><path style="opacity:0.331" fill="#7a56d6" d="M 782.5,156.5 C 783.662,173.662 783.829,190.995 783,208.5C 779.395,208.577 775.729,208.577 772,208.5C 771.5,201.508 771.334,194.508 771.5,187.5C 772.491,193.979 772.824,200.646 772.5,207.5C 775.833,207.5 779.167,207.5 782.5,207.5C 782.5,190.5 782.5,173.5 782.5,156.5 Z"/></g>
<g><path style="opacity:1" fill="#aecad0" d="M 104.5,198.5 C 106.792,198.244 108.959,198.577 111,199.5C 114.965,208.952 119.132,218.285 123.5,227.5C 114.158,229.837 104.825,232.17 95.5,234.5C 92.8631,227.229 89.6964,220.229 86,213.5C 84.7496,210.923 84.4163,208.257 85,205.5C 91.4552,202.771 97.9552,200.437 104.5,198.5 Z"/></g>
<g><path style="opacity:1" fill="#835adf" d="M 629.5,155.5 C 629.389,156.117 629.056,156.617 628.5,157C 623.846,157.04 620.18,158.874 617.5,162.5C 616.334,175.154 616.167,187.82 617,200.5C 619.46,201.755 620.627,203.755 620.5,206.5C 635.869,206.214 651.202,206.547 666.5,207.5C 666.5,204.5 666.5,201.5 666.5,198.5C 652.833,198.5 639.167,198.5 625.5,198.5C 625.187,194.958 625.521,191.625 626.5,188.5C 626.5,191.5 626.5,194.5 626.5,197.5C 640.5,197.5 654.5,197.5 668.5,197.5C 668.665,201.182 668.499,204.848 668,208.5C 667.586,208.957 667.086,209.291 666.5,209.5C 651.545,208.682 636.545,208.182 621.5,208C 619.376,206.878 617.543,205.378 616,203.5C 614.391,190.57 614.058,177.57 615,164.5C 617.642,158.09 622.475,155.09 629.5,155.5 Z"/></g>
<g><path style="opacity:1" fill="#e07a82" d="M 228.5,224.5 C 223.418,233.979 220.085,243.979 218.5,254.5C 212.167,254.5 205.833,254.5 199.5,254.5C 200.099,246.989 198.599,239.989 195,233.5C 192.22,232.862 190.053,231.362 188.5,229C 188.833,228.667 189.167,228.333 189.5,228C 187.415,226.959 185.748,225.459 184.5,223.5C 187.411,222.208 189.244,223.208 190,226.5C 191,225.833 192,225.167 193,224.5C 196.648,229.315 200.815,233.648 205.5,237.5C 205.833,237 206.167,236.5 206.5,236C 205.722,233.61 204.555,231.443 203,229.5C 199.078,226.789 195.244,223.955 191.5,221C 191.998,219.842 192.831,219.009 194,218.5C 198.187,217.591 202.02,216.091 205.5,214C 206.836,211.8 208.502,209.967 210.5,208.5C 217.919,210.355 225.253,212.522 232.5,215C 230.381,217.796 229.048,220.963 228.5,224.5 Z"/></g>
<g><path style="opacity:0.004" fill="#fefffe" d="M 570.5,219.5 C 571.833,220.167 571.833,220.167 570.5,219.5 Z"/></g>
<g><path style="opacity:1" fill="#aecad0" d="M 239.5,255.5 C 235.069,255.231 230.735,255.564 226.5,256.5C 226.136,239.895 232.636,226.895 246,217.5C 254.798,219.651 262.965,223.151 270.5,228C 256.199,232.807 245.865,241.974 239.5,255.5 Z"/></g>
<g><path style="opacity:1" fill="#db7b83" d="M 190.5,255.5 C 176.5,255.5 162.5,255.5 148.5,255.5C 140.694,241.896 132.86,228.229 125,214.5C 122.9,207.929 125.4,205.429 132.5,207C 142.066,217.778 154.066,222.445 168.5,221C 176,228.5 183.5,236 191,243.5C 191.812,247.689 191.645,251.689 190.5,255.5 Z"/></g>
<g><path style="opacity:1" fill="#c8757c" d="M 228.5,224.5 C 229.048,220.963 230.381,217.796 232.5,215C 225.253,212.522 217.919,210.355 210.5,208.5C 208.502,209.967 206.836,211.8 205.5,214C 202.02,216.091 198.187,217.591 194,218.5C 192.831,219.009 191.998,219.842 191.5,221C 195.244,223.955 199.078,226.789 203,229.5C 204.555,231.443 205.722,233.61 206.5,236C 206.167,236.5 205.833,237 205.5,237.5C 200.815,233.648 196.648,229.315 193,224.5C 192,225.167 191,225.833 190,226.5C 189.244,223.208 187.411,222.208 184.5,223.5C 185.748,225.459 187.415,226.959 189.5,228C 189.167,228.333 188.833,228.667 188.5,229C 190.053,231.362 192.22,232.862 195,233.5C 198.599,239.989 200.099,246.989 199.5,254.5C 205.833,254.5 212.167,254.5 218.5,254.5C 218.5,254.833 218.5,255.167 218.5,255.5C 212.167,255.5 205.833,255.5 199.5,255.5C 197.715,250.933 196.882,245.933 197,240.5C 190.652,234.319 184.485,227.986 178.5,221.5C 185.717,220.039 192.717,217.872 199.5,215C 202.776,211.469 206.276,208.302 210,205.5C 218.794,208.932 227.628,212.265 236.5,215.5C 233.811,218.52 231.144,221.52 228.5,224.5 Z"/></g>
<g><path style="opacity:0.004" fill="#fefffe" d="M 489.5,225.5 C 490.833,226.167 490.833,226.167 489.5,225.5 Z"/></g>
<g><path style="opacity:0.004" fill="#fefffe" d="M 420.5,228.5 C 421.833,229.167 421.833,229.167 420.5,228.5 Z"/></g>
<g><path style="opacity:1" fill="#d97a82" d="M 97.5,255.5 C 84.1667,255.5 70.8333,255.5 57.5,255.5C 56.3592,252.36 56.1925,249.027 57,245.5C 61.006,233.662 68.8393,225.662 80.5,221.5C 81.1667,221.833 81.8333,222.167 82.5,222.5C 87.0403,232.045 91.8736,241.378 97,250.5C 97.4935,252.134 97.6602,253.801 97.5,255.5 Z"/></g>
<g><path style="opacity:0.004" fill="#fefffe" d="M 372.5,234.5 C 373.833,235.167 373.833,235.167 372.5,234.5 Z"/></g>
<g><path style="opacity:0.004" fill="#fefffe" d="M 755.5,236.5 C 756.833,237.167 756.833,237.167 755.5,236.5 Z"/></g>
<g><path style="opacity:0.004" fill="#fefffe" d="M 668.5,242.5 C 669.833,243.167 669.833,243.167 668.5,242.5 Z"/></g>
<g><path style="opacity:0.004" fill="#fefffe" d="M 519.5,243.5 C 520.833,244.167 520.833,244.167 519.5,243.5 Z"/></g>
<g><path style="opacity:1" fill="#a0bcc4" d="M 139.5,255.5 C 128.475,256.286 117.475,256.286 106.5,255.5C 105.784,252.402 104.284,249.736 102,247.5C 101.009,245.553 100.675,243.553 101,241.5C 108.986,238.838 116.986,236.171 125,233.5C 126.107,233.585 127.107,233.919 128,234.5C 132.385,241.277 136.219,248.277 139.5,255.5 Z"/></g>
<g><path style="opacity:1" fill="#a0bcc4" d="M 283.5,255.5 C 272.167,255.5 260.833,255.5 249.5,255.5C 253.296,245.538 260.296,238.705 270.5,235C 273.227,234.182 275.894,234.348 278.5,235.5C 282.629,241.554 284.296,248.221 283.5,255.5 Z"/></g>
<g><path style="opacity:1" fill="#de656f" d="M 58.5,245.5 C 69.8529,245.168 81.1862,245.501 92.5,246.5C 93.7602,249.055 95.0936,251.555 96.5,254C 83.5043,254.5 70.5043,254.667 57.5,254.5C 57.2641,251.391 57.5975,248.391 58.5,245.5 Z"/></g>
<g><path style="opacity:1" fill="#de6670" d="M 146.5,245.5 C 160.504,245.333 174.504,245.5 188.5,246C 190.321,248.456 190.988,251.289 190.5,254.5C 176.5,254.5 162.5,254.5 148.5,254.5C 147.539,251.574 146.873,248.574 146.5,245.5 Z"/></g>
<g><path style="opacity:0.004" fill="#fefffe" d="M 486.5,252.5 C 487.833,253.167 487.833,253.167 486.5,252.5 Z"/></g>
<g><path style="opacity:0.004" fill="#fefffe" d="M 576.5,252.5 C 577.833,253.167 577.833,253.167 576.5,252.5 Z"/></g>
<g><path style="opacity:0.004" fill="#fefffe" d="M 575.5,254.5 C 576.833,255.167 576.833,255.167 575.5,254.5 Z"/></g>
<g><path style="opacity:0.004" fill="#fefffe" d="M 690.5,258.5 C 691.833,259.167 691.833,259.167 690.5,258.5 Z"/></g>
<g><path style="opacity:0.004" fill="#fefffe" d="M 287.5,260.5 C 288.833,261.167 288.833,261.167 287.5,260.5 Z"/></g>
<g><path style="opacity:0.004" fill="#fefffe" d="M 531.5,261.5 C 532.833,262.167 532.833,262.167 531.5,261.5 Z"/></g>
<g><path style="opacity:0.004" fill="#fefffe" d="M 143.5,263.5 C 144.833,264.167 144.833,264.167 143.5,263.5 Z"/></g>
<g><path style="opacity:0.004" fill="#fefffe" d="M 578.5,266.5 C 577.833,265.167 577.833,265.167 578.5,266.5 Z"/></g>
</svg>
